# xmcd
#
# Track frame offsets:
#	150
#	14745
#	35265
#
# Disc length: 729 seconds
# Revision: 1
# Processed by: cddbd v1.5.2PL0 Copyright (c) Steve Scherf et al.
# Submitted via: dBpowerAMP V12.0
#
DISCID=1d02d703
DTITLE=Deana Carter - Did I Shave My Legs for This?
DYEAR=1996
DGENRE=Country
TTITLE0=Did I Shave My Legs for This?
TTITLE1=Did I Shave My Legs for This? [Live Event Version]
TTITLE2=Did I Shave My Legs for This? [Live/Studio Version]
EXTD=
EXTT0=
EXTT1=
EXTT2=
PLAYORDER=
